# xmcd
# 
# Track frame offsets:
#   150
#   10437
#   20862
#   37360
#   49917
#   65627
#   79920
#   93442
#   107607
#   118970
#   130485
#   143965
#   156830
#   168680
#   180992
# 
# Disc length: 2566 seconds
# 
# Revision: 0
# Processed by: cddbd v1.5.2PL0 Copyright (c) Steve Scherf et al.
# Submitted via: VOLTOCDX V1.0.24 
# 
DISCID=e10a040f
DTITLE=Various Artist - SC-8579
DYEAR=2010
DGENRE=Karaoke
TTITLE0=Before The Ring On Your Finger Turns Green - Dottie West
TTITLE1=I'll Come Runnin' - Connie Smith
TTITLE2=Big In Vegas - Buck Owens and The Buckaroos
TTITLE3=Big River - Johnny Cash
TTITLE4=Ringo - Lorne Greene
TTITLE5=Fool, The - Sanford Clark
TTITLE6=Tonight Carmen - Marty Robbins
TTITLE7=What Does It Take (To Keep A Man Like You Satisfied) - Skeeter Davis
TTITLE8=Dear Uncle Sam - Loretta Lynn
TTITLE9=Lady's Man - Hank Snow
TTITLE10=I'm A Nut - Roger Miller and Orchestra
TTITLE11=Hey Joe - Carl Smith
TTITLE12=Who Cares - Don Gibson
TTITLE13=Smoky The Bar - Hank Thompson
TTITLE14=Is It Really Over? - Jim Reeves
EXTD=
EXTT0=
EXTT1=
EXTT2=
EXTT3=
EXTT4=
EXTT5=
EXTT6=
EXTT7=
EXTT8=
EXTT9=
EXTT10=
EXTT11=
EXTT12=
EXTT13=
EXTT14=
PLAYORDER=
